<svg width="1000" height="800" viewBox="-500 -400 1000 800" xmlns="http://www.w3.org/2000/svg"><rect x="-60" y="-30" width="120" height="60" rx="5" fill="#FF6B6B" stroke="black" stroke-width="1"/><text x="0" y="0" font-family="Arial" font-size="14" text-anchor="middle" dominant-baseline="middle">28 明朝</text><rect x="-60" y="-30" width="120" height="60" rx="5" fill="#FF6B6B" stroke="black" stroke-width="1"/><text x="0" y="0" font-family="Arial" font-size="14" text-anchor="middle" dominant-baseline="middle">11 西汉</text><rect x="-60" y="-30" width="120" height="60" rx="5" fill="#FF6B6B" stroke="black" stroke-width="1"/><text x="0" y="0" font-family="Arial" font-size="14" text-anchor="middle" dominant-baseline="middle">0 宋元</text><rect x="-60" y="-30" width="120" height="60" rx="5" fill="#FF6B6B" stroke="black" stroke-width="1"/><text x="0" y="0" font-family="Arial" font-size="14" text-anchor="middle" dominant-baseline="middle">25 南宋</text><rect x="-60" y="-30" width="120" height="60" rx="5" fill="#FF6B6B" stroke="black" stroke-width="1"/><text x="0" y="0" font-family="Arial" font-size="14" text-anchor="middle" dominant-baseline="middle">23 宋朝</text><rect x="-60" y="-30" width="120" height="60" rx="5" fill="#FF6B6B" stroke="black" stroke-width="1"/><text x="0" y="0" font-family="Arial" font-size="14" text-anchor="middle" dominant-baseline="middle">16 东晋</text><rect x="-60" y="-30" width="120" height="60" rx="5" fill="#FF6B6B" stroke="black" stroke-width="1"/><text x="0" y="0" font-family="Arial" font-size="14" text-anchor="middle" dominant-baseline="middle">3 东周</text><rect x="-60" y="-30" width="120" height="60" rx="5" fill="#FF6B6B" stroke="black" stroke-width="1"/><text x="0" y="0" font-family="Arial" font-size="14" text-anchor="middle" dominant-baseline="middle">0 周朝</text><rect x="-60" y="-30" width="120" height="60" rx="5" fill="#FF6B6B" stroke="black" stroke-width="1"/><text x="0" y="0" font-family="Arial" font-size="14" text-anchor="middle" dominant-baseline="middle">0 近现代</text><rect x="-60" y="-30" width="120" height="60" rx="5" fill="#FF6B6B" stroke="black" stroke-width="1"/><text x="0" y="0" font-family="Arial" font-size="14" text-anchor="middle" dominant-baseline="middle">25 北宋</text><rect x="-60" y="-30" width="120" height="60" rx="5" fill="#FF6B6B" stroke="black" stroke-width="1"/><text x="0" y="0" font-family="Arial" font-size="14" text-anchor="middle" dominant-baseline="middle">3 西周</text><rect x="-60" y="-30" width="120" height="60" rx="5" fill="#FF6B6B" stroke="black" stroke-width="1"/><text x="0" y="0" font-family="Arial" font-size="14" text-anchor="middle" dominant-baseline="middle">28 清朝</text><rect x="-60" y="-30" width="120" height="60" rx="5" fill="#FF6B6B" stroke="black" stroke-width="1"/><text x="0" y="0" font-family="Arial" font-size="14" text-anchor="middle" dominant-baseline="middle">20 隋朝</text><rect x="-60" y="-30" width="120" height="60" rx="5" fill="#FF6B6B" stroke="black" stroke-width="1"/><text x="0" y="0" font-family="Arial" font-size="14" text-anchor="middle" dominant-baseline="middle">11 东汉</text><rect x="-60" y="-30" width="120" height="60" rx="5" fill="#FF6B6B" stroke="black" stroke-width="1"/><text x="0" y="0" font-family="Arial" font-size="14" text-anchor="middle" dominant-baseline="middle">14 三国</text><rect x="-60" y="-30" width="120" height="60" rx="5" fill="#FF6B6B" stroke="black" stroke-width="1"/><text x="0" y="0" font-family="Arial" font-size="14" text-anchor="middle" dominant-baseline="middle">9 秦朝</text><rect x="-60" y="-30" width="120" height="60" rx="5" fill="#FF6B6B" stroke="black" stroke-width="1"/><text x="0" y="0" font-family="Arial" font-size="14" text-anchor="middle" dominant-baseline="middle">9 汉朝</text><rect x="-60" y="-30" width="120" height="60" rx="5" fill="#FF6B6B" stroke="black" stroke-width="1"/><text x="0" y="0" font-family="Arial" font-size="14" text-anchor="middle" dominant-baseline="middle">0 明清</text><rect x="-60" y="-30" width="120" height="60" rx="5" fill="#FF6B6B" stroke="black" stroke-width="1"/><text x="0" y="0" font-family="Arial" font-size="14" text-anchor="middle" dominant-baseline="middle">20 唐朝</text><rect x="-60" y="-30" width="120" height="60" rx="5" fill="#FF6B6B" stroke="black" stroke-width="1"/><text x="0" y="0" font-family="Arial" font-size="14" text-anchor="middle" dominant-baseline="middle">31 中华人民共和国</text><rect x="-60" y="-30" width="120" height="60" rx="5" fill="#FF6B6B" stroke="black" stroke-width="1"/><text x="0" y="0" font-family="Arial" font-size="14" text-anchor="middle" dominant-baseline="middle">14 南北朝</text><rect x="-60" y="-30" width="120" height="60" rx="5" fill="#FF6B6B" stroke="black" stroke-width="1"/><text x="0" y="0" font-family="Arial" font-size="14" text-anchor="middle" dominant-baseline="middle">16 西晋</text><rect x="-60" y="-30" width="120" height="60" rx="5" fill="#FF6B6B" stroke="black" stroke-width="1"/><text x="0" y="0" font-family="Arial" font-size="14" text-anchor="middle" dominant-baseline="middle">0 隋唐</text><rect x="-60" y="-30" width="120" height="60" rx="5" fill="#FF6B6B" stroke="black" stroke-width="1"/><text x="0" y="0" font-family="Arial" font-size="14" text-anchor="middle" dominant-baseline="middle">0 商朝</text><rect x="-60" y="-30" width="120" height="60" rx="5" fill="#FF6B6B" stroke="black" stroke-width="1"/><text x="0" y="0" font-family="Arial" font-size="14" text-anchor="middle" dominant-baseline="middle">夏商周</text><rect x="-60" y="-30" width="120" height="60" rx="5" fill="#FF6B6B" stroke="black" stroke-width="1"/><text x="0" y="0" font-family="Arial" font-size="14" text-anchor="middle" dominant-baseline="middle">14 晋朝</text><rect x="-60" y="-30" width="120" height="60" rx="5" fill="#FF6B6B" stroke="black" stroke-width="1"/><text x="0" y="0" font-family="Arial" font-size="14" text-anchor="middle" dominant-baseline="middle">0 夏朝</text><rect x="-60" y="-30" width="120" height="60" rx="5" fill="#FF6B6B" stroke="black" stroke-width="1"/><text x="0" y="0" font-family="Arial" font-size="14" text-anchor="middle" dominant-baseline="middle">0 三国两晋南北朝</text><rect x="-60" y="-30" width="120" height="60" rx="5" fill="#FF6B6B" stroke="black" stroke-width="1"/><text x="0" y="0" font-family="Arial" font-size="14" text-anchor="middle" dominant-baseline="middle">31 中华民国</text><rect x="-60" y="-30" width="120" height="60" rx="5" fill="#FF6B6B" stroke="black" stroke-width="1"/><text x="0" y="0" font-family="Arial" font-size="14" text-anchor="middle" dominant-baseline="middle">23 元朝</text><rect x="-60" y="-30" width="120" height="60" rx="5" fill="#FF6B6B" stroke="black" stroke-width="1"/><text x="0" y="0" font-family="Arial" font-size="14" text-anchor="middle" dominant-baseline="middle">6 战国</text><rect x="-60" y="-30" width="120" height="60" rx="5" fill="#FF6B6B" stroke="black" stroke-width="1"/><text x="0" y="0" font-family="Arial" font-size="14" text-anchor="middle" dominant-baseline="middle">0 秦汉</text><rect x="-60" y="-30" width="120" height="60" rx="5" fill="#FF6B6B" stroke="black" stroke-width="1"/><text x="0" y="0" font-family="Arial" font-size="14" text-anchor="middle" dominant-baseline="middle">6 春秋</text></svg>